<svg xmlns="http://www.w3.org/2000/svg" width="800" height="800" viewBox="0 0 800 800" role="img" aria-label="عبوة حصاد NPK">
  <title>عبوة حصاد NPK</title>
  <rect width="800" height="800" fill="#FAF8F3"/>
     <rect x="40" y="40" width="720" height="720" rx="24" fill="#F2EBDD"/>
     
    <path d="M230 180 h340 l20 40 v420 H210 V220 Z" fill="#2F6B4A" stroke="#173F2A" stroke-width="3"/>
    <rect x="250" y="230" width="300" height="360" rx="12" fill="#EAF4EC"/>
    <g transform="translate(376 250) scale(0.9)"><rect width="48" height="48" rx="12" fill="#173F2A"/>
    <path d="M24 38 V22" fill="none" stroke="#EAF4EC" stroke-width="2.2" stroke-linecap="round"/>
    <path d="M24 26C16.2 27.2 10.8 21.4 12.4 14.8C18.8 16.2 22.6 20.8 24 26Z" fill="#1F6A43"/>
    <path d="M24 23.5C31.6 21.6 37.8 15.6 36.2 10.4C29.4 12.2 25.6 17.4 24 23.5Z" fill="#EAF4EC"/></g>
    <text x="400" y="360" text-anchor="middle" fill="#173F2A" font-size="26" font-family="Tahoma">حصاد NPK</text>
    <text x="400" y="396" text-anchor="middle" fill="#2F7D4A" font-size="16" font-family="Tahoma">سماد · ذواب</text>
    <text x="400" y="432" text-anchor="middle" fill="#18231C" font-size="20" font-family="Tahoma">5 كجم</text>
    <text x="400" y="468" text-anchor="middle" fill="#24663C" font-size="14" font-family="Tahoma">طماطم</text>
    <g transform="translate(290 520)">
    <rect width="220" height="28" rx="8" fill="#D99A3D"/>
    <text x="110" y="19" text-anchor="middle" fill="#18231C" font-size="12" font-family="Tahoma, sans-serif">محتوى تجريبي</text>
  </g>
    <ellipse cx="400" cy="640" rx="90" ry="16" fill="#000" opacity=".08"/>
  
     <ellipse cx="400" cy="740" rx="160" ry="18" fill="#000" opacity=".08"/>
</svg>
